<?xml version="1.0" encoding="utf-8"?>
<!-- Uploaded to: SVG Repo, www.svgrepo.com, Generator: SVG Repo Mixer Tools -->
<svg width="800px" height="800px" viewBox="0 -3 20 20" xmlns="http://www.w3.org/2000/svg">
  <g id="train" transform="translate(-2 -5)">
    <path id="secondary" fill="#2ca9bc" d="M13,14a1,1,0,0,1-1-1V10H4a1,1,0,0,0-1,1v6a1,1,0,0,0,1,1H20a1,1,0,0,0,1-1,7,7,0,0,0-.68-3Z"/>
    <path id="primary" d="M7,14H8m2-8h6M12,6v4m9,7h0a7,7,0,0,0-7-7H4a1,1,0,0,0-1,1v6a1,1,0,0,0,1,1H20A1,1,0,0,0,21,17Zm-7-7H12v3a1,1,0,0,0,1,1h7.32A7,7,0,0,0,14,10Z" fill="none" stroke="#000000" stroke-linecap="round" stroke-linejoin="round" stroke-width="2"/>
  </g>
</svg>